<svg width="284" height="185" viewBox="0 0 284 185" fill="none" xmlns="http://www.w3.org/2000/svg">
<g clip-path="url(#clip0_2954_2426)">
<path d="M182.301 71.6L194.401 108.7C195.301 111.3 198.501 112.3 200.601 110.5L236.801 80.6C236.801 80.6 198.301 65.6 198.301 66.4C198.301 67.2 182.301 71.6 182.301 71.6Z" fill="#B5D1DB"/>
<path d="M277.9 0.299971C254.2 9.69997 177.9 40.9 149 52.8C145.2 54.4 145.4 59.8 149.3 61.1L182.3 71.6L194.4 108.6C194.9 110.1 196.1 111 197.5 111.3C198.6 111.5 200.3 81.4 200.3 81.4C200.3 81.4 235 107.1 251.4 119.3C255.5 122.3 261.2 120 262.2 115.1C267.1 89.8 279.4 26.7 283.5 5.09997C284.1 1.69997 280.9 -0.900029 277.9 0.299971Z" fill="white"/>
<path d="M197.5 111.3C198.6 111.5 200.3 81.4 200.3 81.4L257.3 27.9C257.7 27.5 257.2 26.9 256.8 27.2L182.4 71.7L194.5 108.7C194.9 110.1 196.1 111 197.5 111.3Z" fill="#D6E2EA"/>
<path d="M0 183.9C39.1 183.8 91.2 161.7 101.6 119.3C105.8 102.2 102.1 83.9 88.5 71.4C71.4 55.6 52.6 70 57.2 92.1C64.8 128.3 109 155.1 142.6 155.4C162 155.6 180.2 146.3 187.2 127.3" stroke="white" stroke-width="2" stroke-miterlimit="10" stroke-dasharray="5 5"/>
</g>
<defs>
<clipPath id="clip0_2954_2426">
<rect width="283.6" height="184.9" fill="white"/>
</clipPath>
</defs>
</svg>
